<?xml version="1.0" standalone="no"?>
<!DOCTYPE svg PUBLIC "-//W3C//DTD SVG 20010904//EN"
 "http://www.w3.org/TR/2001/REC-SVG-20010904/DTD/svg10.dtd">
<svg version="1.0" xmlns="http://www.w3.org/2000/svg"
 width="500.000000pt" height="500.000000pt" viewBox="0 0 500.000000 500.000000"
 preserveAspectRatio="xMidYMid meet">
<metadata>
Created by potrace 1.11, written by Peter Selinger 2001-2013
</metadata>
<g transform="translate(0.000000,500.000000) scale(0.100000,-0.100000)"
fill="#000000" stroke="none">
<path d="M2086 3765 c7 -68 10 -75 29 -75 25 0 24 16 -6 76 l-30 59 7 -60z"/>
<path d="M2795 3710 c-3 -5 1 -10 9 -10 9 0 16 5 16 10 0 6 -4 10 -9 10 -6 0
-13 -4 -16 -10z"/>
<path d="M1530 3560 c-17 -24 -18 -30 -6 -30 8 0 18 5 21 10 3 6 14 10 25 10
23 0 34 26 14 34 -26 10 -32 7 -54 -24z"/>
<path d="M2279 3239 c-325 -11 -478 -33 -664 -96 -47 -16 -128 -63 -139 -81
-3 -5 1 -33 9 -62 8 -30 19 -88 25 -129 17 -115 36 -205 49 -229 8 -15 21 -22
40 -22 l29 0 4 213 c5 224 13 264 52 272 78 15 236 45 243 45 4 0 -10 -9 -33
-20 -66 -33 -84 -92 -36 -116 19 -9 38 -8 95 7 43 11 107 19 160 19 84 0 88 1
99 25 17 37 -15 77 -72 91 -24 6 -39 14 -33 17 37 23 472 30 661 11 54 -6 73
-24 25 -24 -45 0 -93 -35 -93 -68 0 -43 16 -52 99 -52 42 0 110 -7 152 -16 98
-21 129 -15 129 28 0 50 -59 86 -185 112 -57 11 68 4 189 -11 134 -17 139 -18
161 -48 34 -45 38 -73 42 -277 3 -147 7 -189 18 -198 38 -32 64 16 89 165 10
55 26 140 38 189 l20 90 -24 18 c-58 46 -146 77 -283 102 -245 44 -504 57
-866 45z"/>
<path d="M1972 2903 c-69 -34 -101 -127 -67 -193 36 -69 70 -85 165 -80 l35 2
-35 12 -35 13 35 18 c19 9 46 27 59 39 l23 21 -4 -30 c-3 -16 -3 -24 -1 -17 3
6 8 12 13 12 15 0 32 69 25 103 -21 95 -125 144 -213 100z m52 -32 c15 -17 15
-20 -2 -41 -16 -19 -22 -21 -40 -11 -26 14 -28 28 -5 53 20 23 26 23 47 -1z"/>
<path d="M2825 2913 c-78 -19 -121 -145 -75 -220 27 -45 68 -63 137 -62 l58 1
-38 12 -37 11 35 19 c19 10 43 27 55 38 19 18 21 18 27 2 4 -10 2 -19 -5 -22
-7 -2 -12 -8 -12 -14 0 -23 38 24 48 61 13 40 4 82 -25 128 -27 42 -101 62
-168 46z m33 -35 c17 -17 15 -43 -4 -59 -31 -26 -70 25 -44 56 15 18 32 19 48
3z"/>
<path d="M2220 2284 c-127 -27 -196 -66 -229 -132 -10 -19 -9 -28 4 -49 17
-26 18 -26 113 -19 l96 7 75 -38 c65 -33 84 -38 159 -42 97 -4 145 8 216 51
48 29 51 30 141 23 103 -8 135 1 135 38 0 58 -71 115 -182 148 -62 18 -103 22
-268 24 -136 2 -215 -2 -260 -11z"/>
<path d="M3560 2192 c-31 -15 -80 -55 -80 -65 0 -2 23 8 52 22 101 50 207 37
296 -35 24 -20 32 -23 32 -11 0 18 -49 61 -101 87 -48 25 -149 26 -199 2z"/>
<path d="M3872 2070 c0 -14 2 -19 5 -12 2 6 2 18 0 25 -3 6 -5 1 -5 -13z"/>
<path d="M3845 1720 c-3 -5 -1 -10 4 -10 6 0 11 5 11 10 0 6 -2 10 -4 10 -3 0
-8 -4 -11 -10z"/>
<path d="M3790 1662 c-8 -9 -40 -34 -70 -54 -50 -33 -83 -49 -187 -88 -38 -14
-75 -50 -52 -50 8 0 19 4 24 8 6 5 26 15 45 22 57 21 145 64 148 72 2 4 9 8
15 8 15 1 116 100 102 100 -5 0 -17 -8 -25 -18z"/>
<path d="M2729 1612 c-42 -42 -47 -53 -52 -103 l-5 -57 39 16 c44 17 86 60 95
98 8 33 -4 94 -19 94 -7 -1 -33 -22 -58 -48z"/>
<path d="M2120 1605 c0 -41 5 -50 45 -90 46 -46 74 -59 59 -27 -4 9 -8 35 -8
57 -1 31 -8 47 -33 73 -46 46 -63 43 -63 -13z"/>
<path d="M3431 1404 c0 -11 3 -14 6 -6 3 7 2 16 -1 19 -3 4 -6 -2 -5 -13z"/>
<path d="M3411 1364 c0 -11 3 -14 6 -6 3 7 2 16 -1 19 -3 4 -6 -2 -5 -13z"/>
<path d="M3391 1324 c0 -11 3 -14 6 -6 3 7 2 16 -1 19 -3 4 -6 -2 -5 -13z"/>
<path d="M2250 1305 c0 -18 7 -26 24 -31 14 -3 30 -3 35 1 13 8 15 55 2 55 -5
0 -7 -9 -4 -20 4 -15 0 -20 -14 -20 -27 0 -35 10 -22 27 9 10 8 13 -5 13 -10
0 -16 -9 -16 -25z"/>
<path d="M2627 1323 c-4 -3 -7 -15 -7 -25 0 -13 7 -18 28 -17 21 0 23 2 9 8
-25 9 -23 25 5 33 22 6 22 6 -3 7 -14 1 -29 -2 -32 -6z"/>
<path d="M3366 1291 c-4 -7 -5 -15 -2 -18 9 -9 19 4 14 18 -4 11 -6 11 -12 0z"/>
<path d="M3255 1067 c-107 -214 -99 -197 -86 -197 6 0 11 7 11 15 0 8 5 15 10
15 6 0 10 5 10 12 0 15 73 162 83 166 4 2 7 10 7 17 0 8 14 39 31 70 17 30 29
62 27 69 -2 8 -43 -67 -93 -167z"/>
<path d="M2251 1045 c-1 -15 20 -35 36 -35 7 0 13 5 13 10 0 6 -9 10 -19 10
-11 0 -22 6 -24 13 -3 6 -6 7 -6 2z"/>
<path d="M2635 1020 c3 -5 13 -10 21 -10 8 0 12 5 9 10 -3 6 -13 10 -21 10 -8
0 -12 -4 -9 -10z"/>
</g>
</svg>
